<svg width="193" height="186" viewBox="0 0 193 186" fill="none" xmlns="http://www.w3.org/2000/svg">
<path d="M93 186C68.3349 186 44.68 176.202 27.2391 158.761C9.79821 141.32 1.69558e-05 117.665 0 93.0001C-1.69557e-05 68.3349 9.79814 44.68 27.239 27.2391C44.6799 9.79825 68.3347 3.49897e-05 92.9999 0L92.9999 35.6253C77.7832 35.6254 63.1898 41.6702 52.43 52.43C41.6701 63.1899 35.6253 77.7833 35.6253 93C35.6254 108.217 41.6702 122.81 52.43 133.57C63.1898 144.33 77.7833 150.375 93 150.375L93 186Z" fill="black"/>
<path d="M99.8892 186C112.102 186 124.195 183.594 135.479 178.921C146.762 174.247 157.014 167.397 165.65 158.761C174.286 150.125 181.136 139.873 185.81 128.59C190.484 117.306 192.889 105.213 192.889 93L157.264 93C157.264 100.535 155.78 107.995 152.896 114.956C150.013 121.917 145.787 128.242 140.459 133.57C135.131 138.898 128.807 143.124 121.845 146.007C114.884 148.891 107.424 150.375 99.8892 150.375L99.8892 186Z" fill="#FC4903"/>
<path d="M189.445 0C189.445 12.2129 187.039 24.3063 182.366 35.5896C177.692 46.8728 170.842 57.1251 162.206 65.7609C153.57 74.3968 143.318 81.2471 132.034 85.9208C120.751 90.5945 108.658 93 96.4448 93L96.4448 57.3746C103.979 57.3746 111.44 55.8906 118.401 53.0073C125.362 50.1239 131.687 45.8977 137.015 40.57C142.343 35.2423 146.569 28.9173 149.452 21.9563C152.335 14.9953 153.819 7.53455 153.819 0H189.445Z" fill="black"/>
<circle cx="113.667" cy="17.2222" r="17.2222" fill="#FC4903"/>
</svg>
