<svg width="1021" height="548" viewBox="0 0 1021 548" fill="none" xmlns="http://www.w3.org/2000/svg">
<g filter="url(#filter0_f_815_242)">
<path d="M983.801 510.301C983.801 384.721 933.914 264.284 845.116 175.486C756.317 86.6873 635.881 36.8008 510.301 36.8008C384.721 36.8008 264.284 86.6872 175.486 175.486C86.6873 264.284 36.8008 384.721 36.8008 510.301H60.8454C60.8454 391.098 108.199 276.777 192.488 192.488C276.777 108.199 391.098 60.8454 510.301 60.8454C629.504 60.8454 743.825 108.199 828.114 192.488C912.403 276.777 959.756 391.098 959.756 510.301H983.801Z" fill="url(#paint0_linear_815_242)"/>
</g>
<defs>
<filter id="filter0_f_815_242" x="0.000782013" y="0.000782013" width="1020.6" height="547.1" filterUnits="userSpaceOnUse" color-interpolation-filters="sRGB">
<feFlood flood-opacity="0" result="BackgroundImageFix"/>
<feBlend mode="normal" in="SourceGraphic" in2="BackgroundImageFix" result="shape"/>
<feGaussianBlur stdDeviation="18.4" result="effect1_foregroundBlur_815_242"/>
</filter>
<linearGradient id="paint0_linear_815_242" x1="510.301" y1="36.8008" x2="520.301" y2="440.301" gradientUnits="userSpaceOnUse">
<stop stop-color="#FC4903"/>
<stop offset="1" stop-color="white"/>
</linearGradient>
</defs>
</svg>
